<?xml version="1.0" encoding="utf-8"?>
<!-- Uploaded to: SVG Repo, www.svgrepo.com, Generator: SVG Repo Mixer Tools -->
<svg fill="#000000" width="800px" height="800px" viewBox="0 0 32 32" version="1.1" xmlns="http://www.w3.org/2000/svg">
<title>file-arrow-up</title>
<path d="M27.218 9.838c-0.008-0.059-0.018-0.111-0.032-0.162l0.002 0.008c-0.052-0.222-0.158-0.414-0.303-0.568l0.001 0.001-8-8c-0.155-0.146-0.348-0.252-0.563-0.302l-0.008-0.002c-0.041-0.012-0.092-0.022-0.143-0.029l-0.006-0.001c-0.046-0.013-0.101-0.024-0.158-0.032l-0.006-0.001h-12c-0.69 0-1.25 0.56-1.25 1.25v0 28c0 0.69 0.56 1.25 1.25 1.25h20c0.69-0.001 1.249-0.56 1.25-1.25v-20c-0.008-0.062-0.019-0.117-0.034-0.171l0.002 0.009zM22.982 8.75h-3.732v-3.732zM7.25 28.75v-25.5h9.5v6.75c0 0.69 0.56 1.25 1.25 1.25v0h6.75v17.5zM16.884 13.071c-0.154-0.147-0.348-0.254-0.564-0.304l-0.008-0.002c-0.040-0.011-0.089-0.021-0.14-0.028l-0.006-0.001c-0.062-0.011-0.133-0.017-0.205-0.017-0.156 0-0.306 0.029-0.443 0.082l0.008-0.003-0.004 0c-0.142 0.063-0.263 0.145-0.367 0.246l0-0c-0.012 0.011-0.027 0.014-0.039 0.026l-5 4.999c-0.227 0.226-0.367 0.539-0.367 0.885 0 0.691 0.56 1.251 1.251 1.251 0.345 0 0.658-0.14 0.884-0.366v0l2.866-2.867v9.468c0 0.69 0.56 1.25 1.25 1.25s1.25-0.56 1.25-1.25v0-9.469l2.865 2.867c0.226 0.226 0.539 0.366 0.884 0.366 0.691 0 1.251-0.56 1.251-1.251 0-0.345-0.14-0.658-0.366-0.884l0 0z"></path>
</svg>